<svg width="48" height="48" viewBox="0 0 48 48" fill="none" xmlns="http://www.w3.org/2000/svg">
<g opacity="0.7">
<path d="M30.004 25.8C32.1102 26.2286 34.2984 25.9672 36.2443 25.0546C38.1903 24.1419 39.7904 22.6266 40.8075 20.7331C41.8246 18.8397 42.2047 16.6689 41.8912 14.5426C41.5778 12.4162 40.5876 10.4474 39.0674 8.92799C37.5472 7.40856 35.5779 6.41937 33.4513 6.10702C31.3248 5.79468 29.1542 6.17579 27.2613 7.19389C25.3684 8.21199 23.8539 9.81288 22.9422 11.7593C22.0306 13.7057 21.7703 15.8941 22.2 18" stroke="#FF4D25" stroke-width="3" stroke-linecap="round" stroke-linejoin="round"/>
<path d="M30.004 25.8L22.2 18.002L7.17402 35.17C6.42346 35.9197 6.00148 36.9369 6.00092 37.9978C6.00064 38.5231 6.10383 39.0433 6.30459 39.5288C6.50536 40.0142 6.79977 40.4553 7.17102 40.827C7.54227 41.1986 7.98308 41.4935 8.46829 41.6948C8.95349 41.896 9.4736 41.9998 9.9989 42.0001C11.0598 42.0006 12.0775 41.5797 12.828 40.83L30.004 25.8V25.8Z" stroke="#FF4D25" stroke-width="3" stroke-linecap="round" stroke-linejoin="round"/>
<circle cx="27.5" cy="15.5" r="1.5" fill="#FF4D25"/>
<circle cx="32.5" cy="10.5" r="1.5" fill="#FF4D25"/>
<circle cx="32.5" cy="15.5" r="1.5" fill="#FF4D25"/>
<circle cx="32.5" cy="20.5" r="1.5" fill="#FF4D25"/>
<circle cx="37.5" cy="15.5" r="1.5" fill="#FF4D25"/>
</g>
</svg>
