<svg width="50" height="30" viewBox="0 0 50 30" fill="none" xmlns="http://www.w3.org/2000/svg">
<rect width="50" height="30" rx="6" fill="white"/>
<path d="M38.3331 14.6665C38.3331 19.0686 34.7776 22.6665 30.3331 22.6665C25.931 22.6665 22.3331 19.0686 22.3331 14.6665C22.3331 10.2644 25.8887 6.6665 30.2908 6.6665C34.7776 6.6665 38.3331 10.2644 38.3331 14.6665Z" fill="#FFB600"/>
<path d="M30.3331 6.6665C34.7352 6.6665 38.3331 10.2644 38.3331 14.6665C38.3331 19.0686 34.7776 22.6665 30.3331 22.6665C25.931 22.6665 22.3331 19.0686 22.3331 14.6665" fill="#F7981D"/>
<path d="M30.3333 6.6665C34.7354 6.6665 38.3333 10.2644 38.3333 14.6665C38.3333 19.0686 34.7777 22.6665 30.3333 22.6665" fill="#FF8500"/>
<path d="M19.5818 6.6665C15.2221 6.70883 11.6665 10.2644 11.6665 14.6665C11.6665 19.0686 15.2221 22.6665 19.6665 22.6665C21.7406 22.6665 23.603 21.8623 25.0422 20.5924C25.3385 20.3385 25.5924 20.0422 25.8464 19.7459H24.1956C23.984 19.4919 23.7723 19.1956 23.603 18.9416H26.439C26.6083 18.6877 26.7776 18.3914 26.9046 18.0951H23.1374C23.0104 17.8411 22.8834 17.5448 22.7988 17.2485H27.2009C27.4549 16.4443 27.6242 15.5977 27.6242 14.7088C27.6242 14.1162 27.5395 13.566 27.4549 13.0157H22.5448C22.5871 12.7194 22.6718 12.4654 22.7564 12.1691H27.1586C27.0739 11.8729 26.9469 11.5766 26.8199 11.3226H23.0951C23.2221 11.0263 23.3914 10.7723 23.5607 10.476H26.3967C26.2273 10.1797 26.0157 9.88343 25.7617 9.62947H24.1956C24.4496 9.33317 24.7035 9.0792 24.9998 8.82523C23.603 7.51306 21.6982 6.75116 19.6242 6.75116C19.6242 6.6665 19.6242 6.6665 19.5818 6.6665Z" fill="#FF5050"/>
<path d="M11.6665 14.6666C11.6665 19.0687 15.2221 22.6666 19.6665 22.6666C21.7406 22.6666 23.603 21.8623 25.0422 20.5925C25.3385 20.3385 25.5924 20.0422 25.8464 19.7459H24.1956C23.984 19.492 23.7723 19.1957 23.603 18.9417H26.439C26.6083 18.6877 26.7776 18.3914 26.9046 18.0951H23.1374C23.0104 17.8412 22.8834 17.5449 22.7988 17.2486H27.2009C27.4549 16.4443 27.6242 15.5978 27.6242 14.7089C27.6242 14.1163 27.5395 13.566 27.4549 13.0158H22.5448C22.5871 12.7195 22.6718 12.4655 22.7564 12.1692H27.1586C27.0739 11.8729 26.9469 11.5766 26.8199 11.3226H23.0951C23.2221 11.0264 23.3914 10.7724 23.5607 10.4761H26.3967C26.2273 10.1798 26.0157 9.8835 25.7617 9.62953H24.1956C24.4496 9.33323 24.7035 9.07926 24.9998 8.82529C23.603 7.51313 21.6982 6.75122 19.6242 6.75122H19.5818" fill="#E52836"/>
<path d="M19.6667 22.6666C21.7408 22.6666 23.6032 21.8623 25.0423 20.5925C25.3386 20.3385 25.5926 20.0422 25.8466 19.7459H24.1958C23.9841 19.492 23.7725 19.1957 23.6032 18.9417H26.4392C26.6085 18.6877 26.7778 18.3914 26.9048 18.0951H23.1376C23.0106 17.8412 22.8836 17.5449 22.799 17.2486H27.2011C27.455 16.4443 27.6244 15.5978 27.6244 14.7089C27.6244 14.1163 27.5397 13.566 27.455 13.0158H22.545C22.5873 12.7195 22.672 12.4655 22.7566 12.1692H27.1587C27.0741 11.8729 26.9471 11.5766 26.8201 11.3226H23.0953C23.2222 11.0264 23.3916 10.7724 23.5609 10.4761H26.3968C26.2275 10.1798 26.0159 9.8835 25.7619 9.62953H24.1958C24.4498 9.33323 24.7037 9.07926 25 8.82529C23.6032 7.51313 21.6984 6.75122 19.6244 6.75122H19.582" fill="#CB2026"/>
<path d="M22.5028 16.6983L22.6298 15.9787C22.5874 15.9787 22.5028 16.021 22.4181 16.021C22.1218 16.021 22.0795 15.8517 22.1218 15.767L22.3758 14.2856H22.8414L22.9684 13.4813H22.5451L22.6298 12.9734H21.7832C21.7832 12.9734 21.2753 15.767 21.2753 16.1057C21.2753 16.6136 21.5716 16.8252 21.9525 16.8252C22.2065 16.8252 22.4181 16.7406 22.5028 16.6983Z" fill="white"/>
<path d="M22.7985 15.3437C22.7985 16.5289 23.6027 16.8252 24.2799 16.8252C24.9149 16.8252 25.1688 16.6982 25.1688 16.6982L25.3381 15.894C25.3381 15.894 24.8725 16.1056 24.4493 16.1056C23.518 16.1056 23.6874 15.4284 23.6874 15.4284H25.4228C25.4228 15.4284 25.5498 14.8781 25.5498 14.6665C25.5498 14.1162 25.2535 13.439 24.3223 13.439C23.4334 13.3543 22.7985 14.2855 22.7985 15.3437ZM24.2799 14.1162C24.7456 14.1162 24.6609 14.6665 24.6609 14.7088H23.7297C23.7297 14.6665 23.8143 14.1162 24.2799 14.1162Z" fill="white"/>
<path d="M29.656 16.6983L29.8254 15.7671C29.8254 15.7671 29.4021 15.9788 29.1058 15.9788C28.5132 15.9788 28.2592 15.5132 28.2592 15.0052C28.2592 13.9894 28.7672 13.4391 29.3597 13.4391C29.783 13.4391 30.1217 13.6931 30.1217 13.6931L30.2486 12.8042C30.2486 12.8042 29.7407 12.5925 29.2751 12.5925C28.3015 12.5925 27.328 13.4391 27.328 15.0476C27.328 16.1058 27.8359 16.8253 28.8518 16.8253C29.1904 16.8253 29.656 16.6983 29.656 16.6983Z" fill="white"/>
<path d="M17.8463 13.3542C17.2537 13.3542 16.8304 13.5236 16.8304 13.5236L16.7034 14.2431C16.7034 14.2431 17.0844 14.0738 17.6346 14.0738C17.9309 14.0738 18.1849 14.1162 18.1849 14.3701C18.1849 14.5394 18.1426 14.5818 18.1426 14.5818C18.1426 14.5818 17.8886 14.5818 17.7616 14.5818C17.042 14.5818 16.2378 14.8781 16.2378 15.8516C16.2378 16.6135 16.7457 16.7828 17.042 16.7828C17.6346 16.7828 17.8886 16.4019 17.9309 16.4019L17.8886 16.7405H18.6505L18.9891 14.4124C18.9891 13.3966 18.1426 13.3542 17.8463 13.3542ZM18.0156 15.259C18.0156 15.386 17.9309 16.0632 17.423 16.0632C17.169 16.0632 17.0844 15.8516 17.0844 15.7246C17.0844 15.513 17.2113 15.2167 17.8463 15.2167C17.9732 15.259 18.0156 15.259 18.0156 15.259Z" fill="white"/>
<path d="M19.7936 16.7832C20.0053 16.7832 21.0635 16.8255 21.0635 15.6826C21.0635 14.6244 20.0476 14.8361 20.0476 14.4128C20.0476 14.2011 20.2169 14.1165 20.5132 14.1165C20.6402 14.1165 21.1058 14.1588 21.1058 14.1588L21.2328 13.3969C21.2328 13.3969 20.9365 13.3123 20.4285 13.3123C19.7936 13.3123 19.1587 13.5662 19.1587 14.4128C19.1587 15.3863 20.2169 15.3017 20.2169 15.6826C20.2169 15.9366 19.9206 15.9789 19.709 15.9789C19.328 15.9789 18.9471 15.8519 18.9471 15.8519L18.8201 16.6138C18.8624 16.6985 19.074 16.7832 19.7936 16.7832Z" fill="white"/>
<path d="M36.6822 12.677L36.5129 13.8199C36.5129 13.8199 36.1743 13.3966 35.7087 13.3966C34.9468 13.3966 34.2695 14.3278 34.2695 15.4283C34.2695 16.1056 34.6082 16.8251 35.3277 16.8251C35.8357 16.8251 36.132 16.4865 36.132 16.4865L36.0896 16.7828H36.9362L37.5711 12.7193L36.6822 12.677ZM36.3013 14.9204C36.3013 15.386 36.0896 15.9786 35.624 15.9786C35.3277 15.9786 35.1584 15.7246 35.1584 15.3013C35.1584 14.6241 35.4547 14.2008 35.8357 14.2008C36.132 14.2008 36.3013 14.4125 36.3013 14.9204Z" fill="white"/>
<path d="M13.2325 16.7405L13.7404 13.6929L13.825 16.7405H14.4176L15.5182 13.6929L15.0526 16.7405H15.9414L16.6187 12.677H15.2219L14.3753 15.1744L14.333 12.677H13.1055L12.4282 16.7405H13.2325Z" fill="white"/>
<path d="M26.3544 16.7406C26.6084 15.3437 26.6507 14.2009 27.2433 14.4125C27.328 13.8622 27.455 13.6506 27.5396 13.439C27.5396 13.439 27.4973 13.439 27.3703 13.439C26.9894 13.439 26.6931 13.9469 26.6931 13.9469L26.7777 13.4813H25.9735L25.4232 16.7829H26.3544V16.7406Z" fill="white"/>
<path d="M31.6027 13.3542C31.0101 13.3542 30.5869 13.5236 30.5869 13.5236L30.4599 14.2431C30.4599 14.2431 30.8408 14.0738 31.3911 14.0738C31.6874 14.0738 31.9414 14.1162 31.9414 14.3701C31.9414 14.5394 31.899 14.5818 31.899 14.5818C31.899 14.5818 31.6451 14.5818 31.5181 14.5818C30.7985 14.5818 29.9943 14.8781 29.9943 15.8516C29.9943 16.6135 30.5022 16.7828 30.7985 16.7828C31.3911 16.7828 31.6451 16.4019 31.6874 16.4019L31.6451 16.7405H32.407L32.7456 14.4124C32.7879 13.3966 31.899 13.3542 31.6027 13.3542ZM31.8144 15.259C31.8144 15.386 31.7297 16.0632 31.2218 16.0632C30.9678 16.0632 30.8832 15.8516 30.8832 15.7246C30.8832 15.513 31.0101 15.2167 31.6451 15.2167C31.772 15.259 31.772 15.259 31.8144 15.259Z" fill="white"/>
<path d="M33.4654 16.7406C33.7194 15.3437 33.7617 14.2009 34.3543 14.4125C34.4389 13.8622 34.5659 13.6506 34.6506 13.439C34.6506 13.439 34.6083 13.439 34.4813 13.439C34.1003 13.439 33.804 13.9469 33.804 13.9469L33.8887 13.4813H33.0844L32.5342 16.7829H33.4654V16.7406Z" fill="white"/>
<path d="M21.1901 16.1057C21.1901 16.6136 21.4864 16.8252 21.8673 16.8252C22.1636 16.8252 22.4176 16.7406 22.5022 16.6983L22.6292 15.9787C22.5869 15.9787 22.5022 16.021 22.4176 16.021C22.1213 16.021 22.079 15.8517 22.1213 15.767L22.3752 14.2856H22.8409L22.9678 13.4813H22.5446L22.6292 12.9734" fill="#DCE5E5"/>
<path d="M23.2219 15.3437C23.2219 16.5289 23.6029 16.8252 24.2801 16.8252C24.915 16.8252 25.169 16.6982 25.169 16.6982L25.3383 15.894C25.3383 15.894 24.8727 16.1056 24.4494 16.1056C23.5182 16.1056 23.6875 15.4284 23.6875 15.4284H25.423C25.423 15.4284 25.55 14.8781 25.55 14.6665C25.55 14.1162 25.2537 13.439 24.3225 13.439C23.4336 13.3543 23.2219 14.2855 23.2219 15.3437ZM24.2801 14.1162C24.7457 14.1162 24.8304 14.6665 24.8304 14.7088H23.7299C23.7299 14.6665 23.8145 14.1162 24.2801 14.1162Z" fill="#DCE5E5"/>
<path d="M29.656 16.6983L29.8253 15.7671C29.8253 15.7671 29.402 15.9788 29.1057 15.9788C28.5131 15.9788 28.2592 15.5132 28.2592 15.0052C28.2592 13.9894 28.7671 13.4391 29.3597 13.4391C29.783 13.4391 30.1216 13.6931 30.1216 13.6931L30.2486 12.8042C30.2486 12.8042 29.7406 12.5925 29.275 12.5925C28.3015 12.5925 27.7512 13.4391 27.7512 15.0476C27.7512 16.1058 27.8359 16.8253 28.8517 16.8253C29.1904 16.8253 29.656 16.6983 29.656 16.6983Z" fill="#DCE5E5"/>
<path d="M16.7034 14.2855C16.7034 14.2855 17.0844 14.1162 17.6346 14.1162C17.9309 14.1162 18.1849 14.1585 18.1849 14.4125C18.1849 14.5818 18.1426 14.6241 18.1426 14.6241C18.1426 14.6241 17.8886 14.6241 17.7616 14.6241C17.042 14.6241 16.2378 14.9204 16.2378 15.894C16.2378 16.6559 16.7457 16.8252 17.042 16.8252C17.6346 16.8252 17.8886 16.4443 17.9309 16.4443L17.8886 16.7829H18.6505L18.9891 14.4548C18.9891 13.4813 18.1426 13.439 17.8039 13.439L16.7034 14.2855ZM18.4389 15.2591C18.4389 15.3861 17.9309 16.0633 17.423 16.0633C17.169 16.0633 17.0844 15.8517 17.0844 15.7247C17.0844 15.513 17.2113 15.2167 17.8463 15.2167C17.9732 15.2591 18.4389 15.2591 18.4389 15.2591Z" fill="#DCE5E5"/>
<path d="M18.8624 16.6985C18.8624 16.6985 19.1164 16.7832 19.836 16.7832C20.0476 16.7832 21.1058 16.8255 21.1058 15.6826C21.1058 14.6244 20.0899 14.8361 20.0899 14.4128C20.0899 14.2011 20.2593 14.1165 20.5555 14.1165C20.6825 14.1165 21.1481 14.1588 21.1481 14.1588L21.2751 13.3969C21.2751 13.3969 20.9788 13.3123 20.4709 13.3123C19.836 13.3123 19.6243 13.5662 19.6243 14.4128C19.6243 15.3863 20.2593 15.3017 20.2593 15.6826C20.2593 15.9366 19.963 15.9789 19.7513 15.9789" fill="#DCE5E5"/>
<path d="M36.513 13.82C36.513 13.82 36.1744 13.3967 35.7088 13.3967C34.9469 13.3967 34.6929 14.3279 34.6929 15.4285C34.6929 16.1057 34.6082 16.8253 35.3278 16.8253C35.8357 16.8253 36.132 16.4867 36.132 16.4867L36.0897 16.783H36.9363L37.5712 12.7195L36.513 13.82ZM36.4707 14.9205C36.4707 15.3861 36.0897 15.9787 35.6241 15.9787C35.3278 15.9787 35.1585 15.7248 35.1585 15.3015C35.1585 14.6242 35.4548 14.201 35.8357 14.201C36.132 14.201 36.4707 14.4126 36.4707 14.9205Z" fill="#DCE5E5"/>
<path d="M13.2325 16.7405L13.7404 13.6929L13.825 16.7405H14.4176L15.5182 13.6929L15.0526 16.7405H15.9414L16.6187 12.677H15.5605L14.3753 15.1744L14.333 12.677H13.8674L12.4282 16.7405H13.2325Z" fill="#DCE5E5"/>
<path d="M25.4656 16.7406H26.3545C26.6084 15.3437 26.6508 14.2009 27.2434 14.4125C27.328 13.8622 27.455 13.6506 27.5397 13.439C27.5397 13.439 27.4973 13.439 27.3703 13.439C26.9894 13.439 26.6931 13.9469 26.6931 13.9469L26.7777 13.4813" fill="#DCE5E5"/>
<path d="M30.4599 14.2855C30.4599 14.2855 30.8408 14.1162 31.3911 14.1162C31.6874 14.1162 31.9414 14.1585 31.9414 14.4125C31.9414 14.5818 31.899 14.6241 31.899 14.6241C31.899 14.6241 31.6451 14.6241 31.5181 14.6241C30.7985 14.6241 29.9943 14.9204 29.9943 15.894C29.9943 16.6559 30.5022 16.8252 30.7985 16.8252C31.3911 16.8252 31.6451 16.4443 31.6874 16.4443L31.6451 16.7829H32.407L32.7456 14.4548C32.7456 13.4813 31.899 13.439 31.5604 13.439L30.4599 14.2855ZM32.1953 15.2591C32.1953 15.3861 31.6874 16.0633 31.1794 16.0633C30.9255 16.0633 30.8408 15.8517 30.8408 15.7247C30.8408 15.513 30.9678 15.2167 31.6027 15.2167C31.772 15.2591 32.1953 15.2591 32.1953 15.2591Z" fill="#DCE5E5"/>
<path d="M32.5763 16.7406H33.4652C33.7192 15.3437 33.7615 14.2009 34.3541 14.4125C34.4387 13.8622 34.5657 13.6506 34.6504 13.439C34.6504 13.439 34.608 13.439 34.4811 13.439C34.1001 13.439 33.8038 13.9469 33.8038 13.9469L33.8885 13.4813" fill="#DCE5E5"/>
</svg>
