<svg width="48" height="48" viewBox="0 0 48 48" fill="none" xmlns="http://www.w3.org/2000/svg">
<g opacity="0.7">
<path d="M18 22C22.4183 22 26 18.4183 26 14C26 9.58172 22.4183 6 18 6C13.5817 6 10 9.58172 10 14C10 18.4183 13.5817 22 18 22Z" stroke="#FF4D25" stroke-width="3" stroke-linecap="round" stroke-linejoin="round"/>
<path d="M6 42V38C6 35.8783 6.84285 33.8434 8.34315 32.3431C9.84344 30.8429 11.8783 30 14 30H22C24.1217 30 26.1566 30.8429 27.6569 32.3431C29.1571 33.8434 30 35.8783 30 38V42" stroke="#FF4D25" stroke-width="3" stroke-linecap="round" stroke-linejoin="round"/>
<path d="M32 6.26001C33.7208 6.70061 35.2461 7.70141 36.3353 9.10463C37.4245 10.5078 38.0157 12.2337 38.0157 14.01C38.0157 15.7864 37.4245 17.5122 36.3353 18.9154C35.2461 20.3186 33.7208 21.3194 32 21.76" stroke="#FF4D25" stroke-width="3" stroke-linecap="round" stroke-linejoin="round"/>
<path d="M42 42V38C41.9898 36.2344 41.3958 34.5216 40.3105 33.1289C39.2252 31.7361 37.7097 30.7414 36 30.3" stroke="#FF4D25" stroke-width="3" stroke-linecap="round" stroke-linejoin="round"/>
</g>
</svg>
