<svg width="50" height="31" viewBox="0 0 50 31" fill="none" xmlns="http://www.w3.org/2000/svg">
<path d="M49.9999 27.0832C49.9999 28.5034 48.6767 29.6548 47.0443 29.6548H2.95556C1.32324 29.6548 0 28.5034 0 27.0832L0 2.91644C0 1.49621 1.32324 0.344971 2.95556 0.344971H47.0443C48.6768 0.344971 49.9999 1.4963 49.9999 2.91644V27.0832Z" fill="white"/>
<path d="M11.0978 15.7732L9.92379 10.1413C9.72311 9.36465 9.13912 9.13359 8.40944 9.10303H3.02683L2.97888 9.36035C7.17116 10.3767 9.94508 12.8284 11.0978 15.7732Z" fill="#F79F1A"/>
<path d="M23.5701 9.21606H20.0922L17.9202 21.9628H21.3922L23.5701 9.21606Z" fill="#059BBF"/>
<path d="M13.2177 21.9504L18.6874 9.2251H15.0066L11.604 17.9192L11.2408 16.6065C10.5738 15.0273 8.66757 12.7544 6.42969 11.3235L9.54003 21.9547L13.2177 21.9504Z" fill="#059BBF"/>
<path d="M33.4892 17.7962C33.5021 16.3491 32.5729 15.2453 30.5706 14.3335C29.3537 13.7447 28.612 13.352 28.6209 12.7544C28.6209 12.2265 29.249 11.6594 30.6099 11.6594C31.7487 11.6419 32.5686 11.8906 33.2099 12.148L33.5242 12.292L33.9955 9.53061C33.3061 9.2731 32.2285 8.99829 30.8807 8.99829C27.4475 8.99829 25.0308 10.7259 25.0089 13.2038C24.987 15.0361 26.7366 16.0569 28.0539 16.6675C29.4061 17.29 29.8599 17.6883 29.8512 18.2467C29.8425 19.1005 28.7735 19.4899 27.7746 19.4899C26.383 19.4899 25.6457 19.298 24.5022 18.8216L24.0579 18.6175L23.5698 21.4739C24.3807 21.8282 25.8811 22.138 27.4388 22.1509C31.0898 22.1509 33.4631 20.4452 33.4892 17.7962Z" fill="#059BBF"/>
<path d="M37.6206 20.0525C38.0176 20.0525 41.5642 20.0569 42.0704 20.0569C42.1751 20.5008 42.4936 21.9676 42.4936 21.9676H45.7173L42.9035 9.22949H40.2207C39.3874 9.22949 38.7682 9.45635 38.4016 10.2851L33.241 21.9676H36.8925C36.8922 21.9676 37.4854 20.3973 37.6206 20.0525ZM40.0024 13.8797C39.9852 13.9145 40.2905 13.1425 40.465 12.6626L40.7004 13.7618C40.7004 13.7618 41.3637 16.8069 41.5032 17.4438H38.6196C38.9076 16.711 40.0024 13.8797 40.0024 13.8797Z" fill="#059BBF"/>
<path d="M47.0445 0H2.95568C1.32336 0 0.00012207 1.32324 0.00012207 2.95566V6.02323H50V2.95566C50 1.32324 48.6769 0 47.0445 0Z" fill="#059BBF"/>
<path d="M47.0443 30.0393H2.95556C1.32324 30.0393 0 28.716 0 27.0837V24.167H49.9999V27.0837C49.9999 28.716 48.6768 30.0393 47.0443 30.0393Z" fill="#F79F1A"/>
<path opacity="0.15" d="M2.10127 27.0441L2.10135 2.95566C2.10135 1.32324 3.42468 0 5.0571 0H2.95554C1.32332 0 8.14595e-05 1.32324 8.14595e-05 2.95566L0 27.0442C0 28.6766 1.32324 29.9999 2.95556 29.9999H5.05712C3.4247 29.9999 2.10127 28.6765 2.10127 27.0441Z" fill="#202121"/>
</svg>
